<svg xmlns="http://www.w3.org/2000/svg">
    <symbol id="logo" viewBox="0 0 270 19" fill="none">
        <path d="M0 0H7.81055L12.3767 8.45793L17.023 0H24.5131V15.0543H18.8855V5.6656L13.6584 15.0543H10.7545L5.54749 5.6656V15.0543H0V0Z" fill="#00DF95"/>
        <path d="M34.0322 15.3578C32.884 15.3578 31.8826 15.2701 31.0281 15.0948C30.1737 14.9329 29.446 14.7103 28.8452 14.427C28.2444 14.1303 27.7504 13.793 27.3632 13.4153C26.976 13.0376 26.6689 12.6397 26.4419 12.2215C26.2283 11.8033 26.0748 11.3784 25.9813 10.9468C25.9012 10.5151 25.8612 10.1037 25.8612 9.71246V9.38871C25.8612 9.011 25.9012 8.61306 25.9813 8.19489C26.0614 7.76322 26.2083 7.34505 26.4219 6.94036C26.6489 6.52219 26.956 6.13099 27.3432 5.76677C27.7304 5.38907 28.2244 5.06532 28.8252 4.79553C29.426 4.51225 30.1536 4.28967 31.0081 4.1278C31.8626 3.95243 32.864 3.86475 34.0122 3.86475H35.5342C36.7225 3.86475 37.7506 3.95243 38.6184 4.1278C39.4862 4.28967 40.2206 4.51225 40.8214 4.79553C41.4222 5.07881 41.9095 5.40256 42.2833 5.76677C42.6572 6.13099 42.9442 6.52219 43.1445 6.94036C43.3581 7.34505 43.4983 7.75648 43.5651 8.17465C43.6318 8.59283 43.6652 8.99077 43.6652 9.36848V9.73269C43.6652 10.1239 43.6318 10.5353 43.5651 10.967C43.4983 11.3852 43.3648 11.8033 43.1645 12.2215C42.9643 12.6397 42.6772 13.0376 42.3034 13.4153C41.9429 13.793 41.4556 14.1303 40.8414 14.427C40.2406 14.7103 39.4996 14.9329 38.6184 15.0948C37.7506 15.2701 36.7158 15.3578 35.5142 15.3578H34.0322ZM34.7732 6.94036C34.1056 6.94036 33.5515 7.0213 33.111 7.18317C32.6704 7.33156 32.3232 7.52716 32.0695 7.76997C31.8159 8.01278 31.6356 8.28931 31.5288 8.59957C31.4354 8.89634 31.3886 9.19311 31.3886 9.48988V9.57082C31.3886 9.86759 31.4354 10.1778 31.5288 10.5016C31.6356 10.8119 31.8159 11.1019 32.0695 11.3717C32.3232 11.628 32.6637 11.8438 33.0909 12.0192C33.5315 12.181 34.0923 12.262 34.7732 12.262H34.7932C35.4608 12.262 36.0082 12.1743 36.4354 11.9989C36.876 11.8236 37.2232 11.6077 37.4768 11.3514C37.7305 11.0816 37.9041 10.7916 37.9976 10.4814C38.1044 10.1576 38.1578 9.8541 38.1578 9.57082V9.48988C38.1578 9.19311 38.1044 8.89634 37.9976 8.59957C37.9041 8.28931 37.7305 8.01278 37.4768 7.76997C37.2232 7.52716 36.876 7.33156 36.4354 7.18317C36.0082 7.0213 35.4608 6.94036 34.7932 6.94036H34.7732Z" fill="#00DF95"/>
        <path d="M44.8419 0H50.2893V6.07029C50.4095 5.94888 50.6031 5.77352 50.8701 5.5442C51.1505 5.30138 51.5176 5.06532 51.9716 4.836C52.4255 4.59318 52.9663 4.3841 53.5938 4.20873C54.2346 4.01988 54.9756 3.92545 55.8168 3.92545H55.9369C56.9383 3.92545 57.7794 4.06035 58.4603 4.33014C59.1413 4.59993 59.682 4.93717 60.0825 5.34185C60.4964 5.74654 60.7901 6.19169 60.9637 6.67732C61.1373 7.16294 61.2241 7.62158 61.2241 8.05325V15.0543H55.7567V9.8541C55.7567 9.12567 55.5564 8.52538 55.1559 8.05325C54.7553 7.58111 54.0878 7.34505 53.1532 7.34505C52.2319 7.34505 51.5243 7.5946 51.0303 8.09372C50.5363 8.59283 50.2893 9.22684 50.2893 9.99574V15.0543H44.8419V0Z" fill="#00DF95"/>
        <path d="M63.537 15.4995H65.9803C66.1806 15.4995 66.3141 15.4657 66.3809 15.3983C66.4476 15.3308 66.481 15.2499 66.481 15.1555V15.1353C66.481 15.0273 66.4409 14.8924 66.3608 14.7306C66.2807 14.5552 66.1673 14.3259 66.0204 14.0426L60.9335 4.16826H66.7414L69.7454 11.1693L72.5292 4.16826H77.9365L72.7495 15.5197C72.2288 16.6663 71.648 17.5094 71.0071 18.049C70.3796 18.5886 69.5785 18.8584 68.6039 18.8584H63.537V15.4995Z" fill="#00DF95"/>
        <path d="M83.9676 15.0543H78.5202V0H83.9676V15.0543Z" fill="#00DF95"/>
        <path d="M93.6519 6.53568C93.1312 6.53568 92.6906 6.57614 92.3301 6.65708C91.9696 6.73802 91.6692 6.85268 91.4289 7.00106C91.1886 7.13596 90.995 7.30458 90.8481 7.50692C90.7146 7.70927 90.6145 7.93184 90.5477 8.17465H96.7561C96.6493 7.66205 96.3622 7.26411 95.8949 6.98083C95.4276 6.68406 94.68 6.53568 93.6519 6.53568ZM102.163 11.1289C102.163 11.3852 102.13 11.6684 102.063 11.9787C101.997 12.2755 101.863 12.5857 101.663 12.9095C101.462 13.2197 101.182 13.5233 100.822 13.82C100.461 14.1168 99.9871 14.3798 99.3997 14.6092C98.8122 14.825 98.0912 15.0004 97.2367 15.1353C96.3956 15.2836 95.3876 15.3578 94.2127 15.3578H93.1512C91.4957 15.3578 90.1472 15.1892 89.1058 14.852C88.0644 14.5012 87.2499 14.0561 86.6625 13.5165C86.075 12.9769 85.6745 12.3766 85.4608 11.7157C85.2472 11.0412 85.1404 10.3869 85.1404 9.75293V9.34824C85.1404 8.71423 85.2406 8.07348 85.4408 7.42599C85.6411 6.77849 86.0283 6.19169 86.6024 5.6656C87.1898 5.13951 87.9976 4.70785 89.0257 4.37061C90.0671 4.03337 91.4222 3.86475 93.0912 3.86475H94.1926C95.3676 3.86475 96.3756 3.95243 97.2167 4.1278C98.0712 4.28967 98.7922 4.51899 99.3796 4.81576C99.9805 5.11253 100.461 5.45651 100.822 5.84771C101.195 6.23891 101.482 6.65708 101.683 7.10224C101.883 7.5339 102.017 7.9858 102.083 8.45793C102.163 8.91658 102.203 9.36173 102.203 9.7934V10.4004H90.4876C90.5277 10.6837 90.6145 10.9468 90.748 11.1896C90.8949 11.4324 91.0951 11.6482 91.3488 11.8371C91.6158 12.0124 91.9429 12.1541 92.3301 12.262C92.7307 12.3564 93.2046 12.4036 93.7521 12.4036H93.7721C94.4129 12.4036 94.927 12.3497 95.3142 12.2417C95.7147 12.1203 96.0218 11.9854 96.2354 11.8371C96.449 11.6887 96.5892 11.547 96.656 11.4121C96.7361 11.2638 96.7828 11.1558 96.7962 11.0884H102.163V11.1289Z" fill="#00DF95"/>
        <path d="M101.594 4.16826H107.422L110.386 11.2503L113.21 4.16826H118.797L113.89 15.0543H106.701L101.594 4.16826Z" fill="#00DF95"/>
        <path d="M125.83 15.3578C124.748 15.3578 123.82 15.2904 123.046 15.1555C122.271 15.0341 121.617 14.8722 121.083 14.6699C120.549 14.4675 120.122 14.2315 119.801 13.9617C119.481 13.6919 119.234 13.4153 119.06 13.1321C118.887 12.8353 118.773 12.552 118.72 12.2822C118.667 11.9989 118.64 11.7359 118.64 11.4931V11.3514H124.187C124.187 11.4594 124.207 11.5875 124.247 11.7359C124.287 11.8843 124.381 12.0327 124.528 12.181C124.688 12.3159 124.915 12.4373 125.209 12.5453C125.502 12.6397 125.903 12.6869 126.41 12.6869H126.45C126.931 12.6869 127.318 12.6599 127.612 12.606C127.906 12.552 128.126 12.4846 128.273 12.4036C128.433 12.3227 128.54 12.2283 128.593 12.1203C128.647 12.0124 128.673 11.8978 128.673 11.7764V11.7359C128.673 11.601 128.647 11.4863 128.593 11.3919C128.553 11.284 128.46 11.1896 128.313 11.1086C128.166 11.0277 127.952 10.967 127.672 10.9265C127.405 10.886 127.051 10.8591 126.611 10.8456L124.328 10.7849C123.193 10.7444 122.265 10.623 121.544 10.4207C120.823 10.2048 120.255 9.94178 119.841 9.63152C119.428 9.30777 119.141 8.9503 118.98 8.5591C118.833 8.16791 118.76 7.76997 118.76 7.36528V7.24388C118.76 6.79872 118.847 6.3738 119.02 5.96912C119.207 5.56443 119.554 5.20696 120.062 4.8967C120.569 4.57295 121.283 4.32339 122.205 4.14803C123.139 3.95918 124.348 3.86475 125.83 3.86475H126.891C128.333 3.86475 129.515 3.95918 130.436 4.14803C131.357 4.33688 132.078 4.59318 132.599 4.91693C133.119 5.22719 133.473 5.58466 133.66 5.98935C133.86 6.39404 133.961 6.81221 133.961 7.24388V7.38552H128.513C128.5 7.29109 128.473 7.18992 128.433 7.082C128.393 6.9606 128.3 6.85268 128.153 6.75825C128.006 6.65034 127.786 6.56266 127.492 6.49521C127.211 6.41427 126.831 6.3738 126.35 6.3738H126.33C125.89 6.3738 125.529 6.39404 125.249 6.4345C124.982 6.46148 124.768 6.5087 124.608 6.57614C124.461 6.6301 124.361 6.7043 124.308 6.79872C124.254 6.89315 124.227 7.00106 124.227 7.12247V7.1427C124.227 7.25062 124.254 7.35179 124.308 7.44622C124.361 7.54065 124.461 7.62158 124.608 7.68903C124.755 7.75648 124.955 7.81718 125.209 7.87114C125.476 7.91161 125.816 7.93859 126.23 7.95208L128.493 8.01278C129.708 8.05325 130.696 8.15442 131.457 8.31629C132.218 8.47817 132.812 8.70749 133.24 9.00426C133.68 9.28754 133.974 9.63827 134.121 10.0564C134.281 10.4611 134.361 10.9333 134.361 11.4728V11.6145C134.361 12.1136 134.268 12.5925 134.081 13.0511C133.907 13.4963 133.553 13.8942 133.019 14.2449C132.485 14.5822 131.731 14.852 130.756 15.0543C129.782 15.2567 128.507 15.3578 126.931 15.3578H125.83Z" fill="#00DF95"/>
        <path d="M135.492 15.0543V0H140.939V8.41747L144.624 4.16826H150.492L146.106 8.98403L151.133 15.0543H144.944L140.939 10.1576V15.0543H135.492Z" fill="#00DF95"/>
        <path d="M152.779 15.4995H155.222C155.422 15.4995 155.556 15.4657 155.622 15.3983C155.689 15.3308 155.723 15.2499 155.723 15.1555V15.1353C155.723 15.0273 155.683 14.8924 155.602 14.7306C155.522 14.5552 155.409 14.3259 155.262 14.0426L150.175 4.16826H155.983L158.987 11.1693L161.771 4.16826H167.178L161.991 15.5197C161.47 16.6663 160.89 17.5094 160.249 18.049C159.621 18.5886 158.82 18.8584 157.845 18.8584H152.779V15.4995Z" fill="#00DF95"/>
        <path d="M173.209 3.25772H167.762V0H173.209V3.25772ZM173.209 15.0543H167.762V4.16826H173.209V15.0543Z" fill="#00DF95"/>
        <path d="M180.27 15.0543H174.622V11.1086H180.27V15.0543Z" fill="#00DF95"/>
        <path d="M181.847 0H192.421C194.571 0 196.34 0.209087 197.729 0.627262C199.117 1.03195 200.212 1.57153 201.013 2.24601C201.827 2.90699 202.388 3.66241 202.695 4.51225C203.016 5.36209 203.176 6.23216 203.176 7.12247V7.7295C203.176 8.29606 203.116 8.87611 202.996 9.46965C202.875 10.0497 202.662 10.6095 202.355 11.1491C202.061 11.6887 201.654 12.2013 201.133 12.6869C200.612 13.159 199.952 13.5705 199.15 13.9212C198.363 14.2719 197.415 14.5485 196.307 14.7508C195.212 14.9531 193.923 15.0543 192.441 15.0543H181.847V0ZM187.535 11.0682H191.76C193.002 11.0682 193.983 10.9468 194.704 10.7039C195.439 10.4611 195.993 10.1644 196.367 9.81363C196.754 9.44942 197.001 9.06496 197.108 8.66028C197.214 8.2421 197.268 7.87114 197.268 7.54739V7.42599C197.268 7.10224 197.214 6.73802 197.108 6.33333C197.001 5.92865 196.754 5.55094 196.367 5.20021C195.993 4.836 195.439 4.53923 194.704 4.3099C193.983 4.06709 193.002 3.94569 191.76 3.94569H187.535V11.0682Z" fill="#00DF95"/>
        <path d="M209.821 3.25772H204.374V0H209.821V3.25772ZM209.821 15.0543H204.374V4.16826H209.821V15.0543Z" fill="#00DF95"/>
        <path d="M219.626 7.04153C219.025 7.04153 218.524 7.10898 218.124 7.24388C217.723 7.36528 217.403 7.52716 217.162 7.7295C216.922 7.93184 216.748 8.16791 216.642 8.4377C216.548 8.694 216.501 8.95705 216.501 9.22684V9.32801C216.501 9.61129 216.555 9.89457 216.662 10.1778C216.768 10.4476 216.942 10.6905 217.182 10.9063C217.423 11.1221 217.743 11.2975 218.144 11.4324C218.544 11.5673 219.038 11.6347 219.626 11.6347H219.746C220.347 11.6347 220.861 11.5673 221.288 11.4324C221.728 11.2975 222.089 11.1221 222.369 10.9063C222.65 10.6905 222.857 10.4476 222.99 10.1778C223.124 9.89457 223.19 9.61129 223.19 9.32801V9.26731C223.19 8.98403 223.124 8.70749 222.99 8.4377C222.857 8.16791 222.65 7.93184 222.369 7.7295C222.089 7.51367 221.728 7.34505 221.288 7.22364C220.861 7.10224 220.347 7.04153 219.746 7.04153H219.626ZM219.205 19C218.083 19 217.116 18.9258 216.301 18.7774C215.5 18.6425 214.819 18.4604 214.258 18.2311C213.698 18.0153 213.244 17.7657 212.896 17.4824C212.563 17.1991 212.302 16.9091 212.115 16.6124C211.929 16.3291 211.802 16.0525 211.735 15.7827C211.682 15.5264 211.655 15.3039 211.655 15.115V15.0543H217.122C217.136 15.1218 217.169 15.2027 217.222 15.2971C217.289 15.405 217.416 15.5062 217.603 15.6006C217.803 15.7086 218.083 15.7962 218.444 15.8637C218.818 15.9311 219.312 15.9649 219.926 15.9649H219.986C220.64 15.9649 221.181 15.8839 221.608 15.722C222.036 15.5602 222.369 15.3511 222.61 15.0948C222.85 14.8385 223.017 14.5485 223.11 14.2247C223.204 13.8875 223.25 13.5435 223.25 13.1928V12.9702C223.13 13.0916 222.95 13.2467 222.71 13.4356C222.469 13.6109 222.142 13.7863 221.728 13.9617C221.315 14.137 220.801 14.2854 220.186 14.4068C219.586 14.5282 218.858 14.5889 218.003 14.5889H217.683C216.441 14.5889 215.393 14.4473 214.539 14.164C213.698 13.8672 213.01 13.476 212.476 12.9904C211.955 12.5048 211.575 11.9517 211.334 11.3312C211.107 10.7107 210.994 10.0699 210.994 9.40895V9.04473C210.994 8.41072 211.101 7.7902 211.314 7.18317C211.528 6.57614 211.882 6.03656 212.376 5.56443C212.87 5.07881 213.517 4.69436 214.318 4.41108C215.133 4.11431 216.134 3.96592 217.322 3.96592H217.763C218.644 3.96592 219.392 4.02662 220.006 4.14803C220.634 4.26943 221.161 4.41782 221.588 4.59318C222.029 4.75506 222.376 4.93042 222.63 5.11928C222.883 5.29464 223.084 5.44302 223.23 5.56443V4.16826H228.678V13.2332C228.678 13.7863 228.578 14.3933 228.377 15.0543C228.19 15.7288 227.81 16.3561 227.236 16.9361C226.675 17.5296 225.874 18.022 224.833 18.4132C223.791 18.8044 222.429 19 220.747 19H219.205Z" fill="#00DF95"/>
        <path d="M235.735 3.25772H230.288V0H235.735V3.25772ZM235.735 15.0543H230.288V4.16826H235.735V15.0543Z" fill="#00DF95"/>
        <path d="M241.714 15.0543C240.78 15.0543 240.065 14.798 239.571 14.2854C239.091 13.7728 238.85 12.9972 238.85 11.9585V7.50692H236.788V4.16826H238.85V0.99148H244.258V4.16826H246.321V7.50692H244.258V10.7242C244.258 11.0614 244.311 11.3042 244.418 11.4526C244.525 11.601 244.772 11.6752 245.159 11.6752H246.321V15.0543H241.714Z" fill="#00DF95"/>
        <path d="M257.249 9.9148L253.644 10.5623C253.177 10.6432 252.836 10.7512 252.622 10.886C252.422 11.0209 252.322 11.2233 252.322 11.4931V11.5133C252.322 11.6347 252.349 11.7629 252.402 11.8978C252.456 12.0327 252.542 12.1541 252.663 12.262C252.796 12.3699 252.97 12.4576 253.183 12.525C253.41 12.5925 253.691 12.6262 254.024 12.6262C254.518 12.6262 254.966 12.5655 255.366 12.4441C255.767 12.3092 256.107 12.1406 256.388 11.9382C256.668 11.7224 256.882 11.4796 257.028 11.2098C257.175 10.94 257.249 10.6635 257.249 10.3802V9.9148ZM257.349 13.5974C257.215 13.7323 257.022 13.8942 256.768 14.0831C256.528 14.2719 256.207 14.454 255.807 14.6294C255.406 14.8048 254.912 14.9531 254.325 15.0745C253.751 15.196 253.076 15.2567 252.302 15.2567H252.082C251.174 15.2567 250.406 15.1622 249.779 14.9734C249.151 14.771 248.637 14.508 248.237 14.1842C247.836 13.847 247.542 13.4693 247.355 13.0511C247.182 12.6329 247.095 12.2013 247.095 11.7561V11.5133C247.095 11.0547 247.168 10.65 247.315 10.2993C247.476 9.93504 247.729 9.62478 248.076 9.36848C248.423 9.09869 248.871 8.88285 249.418 8.72098C249.979 8.54562 250.66 8.42421 251.461 8.35676L256.648 7.89137C256.875 7.86439 257.028 7.81044 257.109 7.7295C257.202 7.63507 257.249 7.51367 257.249 7.36528C257.249 7.27085 257.222 7.17643 257.169 7.082C257.129 6.97409 257.028 6.87966 256.868 6.79872C256.708 6.71778 256.474 6.65708 256.167 6.61661C255.86 6.56265 255.44 6.53568 254.906 6.53568H254.825C254.251 6.53568 253.804 6.57614 253.484 6.65708C253.163 6.73802 252.923 6.83919 252.763 6.9606C252.616 7.082 252.522 7.21015 252.482 7.34505C252.442 7.46645 252.416 7.56763 252.402 7.64856H247.355V7.52716C247.355 7.16294 247.409 6.77174 247.516 6.35357C247.636 5.9219 247.923 5.52396 248.377 5.15974C248.844 4.79553 249.538 4.49201 250.46 4.2492C251.381 4.00639 252.649 3.88498 254.265 3.88498H255.386C256.508 3.88498 257.462 3.93894 258.25 4.04686C259.051 4.14128 259.712 4.28293 260.233 4.47178C260.767 4.64714 261.187 4.84948 261.494 5.07881C261.815 5.30813 262.049 5.55769 262.195 5.82748C262.356 6.08378 262.456 6.34682 262.496 6.61661C262.549 6.8864 262.576 7.1427 262.576 7.38552V11.4121C262.576 11.5605 262.603 11.6752 262.656 11.7561C262.723 11.8371 262.85 11.8775 263.037 11.8775H263.617V15.0543H259.091C258.624 15.0543 258.237 14.9329 257.93 14.6901C257.623 14.4338 257.429 14.0696 257.349 13.5974Z" fill="#00DF95"/>
        <path d="M270 15.0543H264.553V0H270V15.0543Z" fill="#00DF95"/>
    </symbol>
    <symbol id="logo--mobile" viewBox="0 0 140 16" fill="none">
        <path d="M0 0H6.06577L9.61192 7.17597L13.2203 0H19.0372V12.7725H14.6667V4.80687L10.6073 12.7725H8.3521L4.30825 4.80687V12.7725H0V0Z" fill="#00DF95"/>
        <path d="M26.4299 13.03C25.5381 13.03 24.7605 12.9557 24.0969 12.8069C23.4333 12.6695 22.8682 12.4807 22.4016 12.2403C21.935 11.9886 21.5513 11.7024 21.2506 11.382C20.9499 11.0615 20.7114 10.7239 20.5352 10.3691C20.3693 10.0143 20.25 9.65379 20.1774 9.28755C20.1152 8.92132 20.0841 8.57225 20.0841 8.24034V7.96567C20.0841 7.64521 20.1152 7.30758 20.1774 6.95279C20.2397 6.58655 20.3537 6.23176 20.5196 5.88841C20.6959 5.53362 20.9344 5.20172 21.2351 4.8927C21.5358 4.57225 21.9194 4.29757 22.386 4.06867C22.8526 3.82833 23.4177 3.63949 24.0813 3.50215C24.7449 3.35336 25.5226 3.27897 26.4143 3.27897H27.5963C28.5192 3.27897 29.3176 3.35336 29.9915 3.50215C30.6655 3.63949 31.2358 3.82833 31.7024 4.06867C32.169 4.30901 32.5475 4.58369 32.8378 4.8927C33.1281 5.20172 33.3511 5.53362 33.5066 5.88841C33.6725 6.23176 33.7814 6.58083 33.8332 6.93562C33.885 7.29041 33.911 7.62804 33.911 7.9485V8.25751C33.911 8.58941 33.885 8.93848 33.8332 9.30472C33.7814 9.65951 33.6777 10.0143 33.5221 10.3691C33.3666 10.7239 33.1437 11.0615 32.8533 11.382C32.5734 11.7024 32.1949 11.9886 31.718 12.2403C31.2514 12.4807 30.6759 12.6695 29.9915 12.8069C29.3176 12.9557 28.514 13.03 27.5808 13.03H26.4299ZM27.0053 5.88841C26.4869 5.88841 26.0566 5.95708 25.7144 6.09442C25.3722 6.22031 25.1026 6.38627 24.9056 6.59227C24.7086 6.79828 24.5686 7.0329 24.4857 7.29614C24.4131 7.54793 24.3768 7.79971 24.3768 8.0515V8.12017C24.3768 8.37196 24.4131 8.63519 24.4857 8.90987C24.5686 9.1731 24.7086 9.41917 24.9056 9.64807C25.1026 9.86552 25.367 10.0486 25.6988 10.1974C26.041 10.3348 26.4765 10.4034 27.0053 10.4034H27.0209C27.5393 10.4034 27.9644 10.329 28.2962 10.1803C28.6384 10.0315 28.908 9.84836 29.105 9.6309C29.302 9.402 29.4368 9.15594 29.5094 8.8927C29.5923 8.61803 29.6338 8.36052 29.6338 8.12017V8.0515C29.6338 7.79971 29.5923 7.54793 29.5094 7.29614C29.4368 7.0329 29.302 6.79828 29.105 6.59227C28.908 6.38627 28.6384 6.22031 28.2962 6.09442C27.9644 5.95708 27.5393 5.88841 27.0209 5.88841H27.0053Z" fill="#00DF95"/>
        <path d="M34.8248 0H39.0553V5.15021C39.1486 5.04721 39.299 4.89843 39.5064 4.70386C39.7241 4.49785 40.0093 4.29757 40.3618 4.103C40.7143 3.897 41.1343 3.7196 41.6216 3.57082C42.1193 3.41059 42.6948 3.33047 43.348 3.33047H43.4414C44.219 3.33047 44.8722 3.44492 45.4011 3.67382C45.9299 3.90272 46.3498 4.18884 46.6609 4.53219C46.9823 4.87554 47.2104 5.25322 47.3452 5.66524C47.48 6.07725 47.5474 6.46638 47.5474 6.83262V12.7725H43.3014V8.36052C43.3014 7.74249 43.1458 7.23319 42.8348 6.83262C42.5237 6.43205 42.0053 6.23176 41.2794 6.23176C40.564 6.23176 40.0144 6.44349 39.6308 6.86695C39.2472 7.29041 39.0553 7.82833 39.0553 8.48069V12.7725H34.8248V0Z" fill="#00DF95"/>
        <path d="M49.3437 13.1502H51.2412C51.3967 13.1502 51.5004 13.1216 51.5523 13.0644C51.6041 13.0072 51.63 12.9385 51.63 12.8584V12.8412C51.63 12.7496 51.5989 12.6352 51.5367 12.4979C51.4745 12.3491 51.3864 12.1545 51.2723 11.9142L47.3218 3.53648H51.8322L54.1652 9.47639L56.3271 3.53648H60.5265L56.4982 13.1674C56.0938 14.1402 55.6428 14.8555 55.1451 15.3133C54.6577 15.7711 54.0356 16 53.2787 16H49.3437V13.1502Z" fill="#00DF95"/>
        <path d="M65.2103 12.7725H60.9798V0H65.2103V12.7725Z" fill="#00DF95"/>
        <path d="M72.7313 5.54506C72.3269 5.54506 71.9847 5.5794 71.7048 5.64807C71.4248 5.71674 71.1915 5.81402 71.0049 5.93991C70.8182 6.05436 70.6679 6.19742 70.5538 6.3691C70.4502 6.54077 70.3724 6.72961 70.3205 6.93562H75.1421C75.0591 6.50072 74.8362 6.16309 74.4733 5.92275C74.1104 5.67096 73.5297 5.54506 72.7313 5.54506ZM79.3414 9.44206C79.3414 9.65951 79.3155 9.89986 79.2637 10.1631C79.2118 10.4149 79.1081 10.6781 78.9526 10.9528C78.7971 11.216 78.5793 11.4735 78.2994 11.7253C78.0194 11.9771 77.6513 12.2003 77.1951 12.3949C76.7389 12.578 76.1789 12.7268 75.5153 12.8412C74.8621 12.9671 74.0792 13.03 73.1668 13.03H72.3425C71.0567 13.03 70.0095 12.887 69.2007 12.6009C68.3919 12.3033 67.7594 11.9256 67.3032 11.4678C66.847 11.01 66.5359 10.5007 66.37 9.93991C66.2041 9.36767 66.1212 8.81259 66.1212 8.27468V7.93133C66.1212 7.39342 66.1989 6.84979 66.3545 6.30043C66.51 5.75107 66.8107 5.25322 67.2565 4.80687C67.7128 4.36052 68.3401 3.99428 69.1385 3.70816C69.9473 3.42203 70.9997 3.27897 72.2958 3.27897H73.1512C74.0637 3.27897 74.8465 3.35336 75.4998 3.50215C76.1634 3.63949 76.7233 3.83405 77.1795 4.08584C77.6461 4.33762 78.0194 4.62947 78.2994 4.96137C78.5897 5.29328 78.8126 5.64807 78.9682 6.02575C79.1237 6.39199 79.2274 6.77539 79.2792 7.17597C79.3414 7.56509 79.3725 7.94278 79.3725 8.30901V8.82404H70.2739C70.305 9.06438 70.3724 9.28755 70.4761 9.49356C70.5901 9.69957 70.7457 9.88269 70.9427 10.0429C71.15 10.1917 71.4041 10.3119 71.7048 10.4034C72.0158 10.4835 72.3839 10.5236 72.8091 10.5236H72.8246C73.3223 10.5236 73.7215 10.4778 74.0222 10.3863C74.3333 10.2833 74.5718 10.1688 74.7377 10.0429C74.9036 9.91702 75.0124 9.79685 75.0643 9.6824C75.1265 9.55651 75.1628 9.46495 75.1732 9.40773H79.3414V9.44206Z" fill="#00DF95"/>
        <path d="M78.8991 3.53648H83.4251L85.727 9.54506L87.92 3.53648H92.2594L88.4488 12.7725H82.8652L78.8991 3.53648Z" fill="#00DF95"/>
        <path d="M97.7209 13.03C96.881 13.03 96.1604 12.9728 95.559 12.8584C94.9576 12.7554 94.4495 12.618 94.0348 12.4464C93.62 12.2747 93.2882 12.0744 93.0394 11.8455C92.7905 11.6166 92.5987 11.382 92.4639 11.1416C92.3291 10.8898 92.241 10.6495 92.1995 10.4206C92.158 10.1803 92.1373 9.95708 92.1373 9.75107V9.6309H96.4455C96.4455 9.72246 96.4611 9.83119 96.4922 9.95708C96.5233 10.083 96.5959 10.2089 96.7099 10.3348C96.8344 10.4492 97.0106 10.5522 97.2387 10.6438C97.4669 10.7239 97.7779 10.7639 98.1719 10.7639H98.203C98.5763 10.7639 98.877 10.7411 99.1051 10.6953C99.3332 10.6495 99.5043 10.5923 99.6184 10.5236C99.7428 10.4549 99.8258 10.3748 99.8672 10.2833C99.9087 10.1917 99.9295 10.0944 99.9295 9.99142V9.95708C99.9295 9.84263 99.9087 9.74535 99.8672 9.66524C99.8361 9.57368 99.7635 9.49356 99.6495 9.42489C99.5354 9.35622 99.3695 9.30472 99.1518 9.27039C98.9444 9.23605 98.6696 9.21316 98.3275 9.20172L96.5544 9.15021C95.673 9.11588 94.9524 9.01288 94.3925 8.8412C93.8326 8.65808 93.3919 8.43491 93.0705 8.17167C92.749 7.897 92.5261 7.5937 92.4017 7.2618C92.2876 6.9299 92.2306 6.59227 92.2306 6.24893V6.14592C92.2306 5.76824 92.298 5.40772 92.4328 5.06438C92.5779 4.72103 92.8475 4.41774 93.2416 4.15451C93.6356 3.87983 94.1903 3.6681 94.9058 3.51931C95.6316 3.35908 96.5699 3.27897 97.7209 3.27897H98.5452C99.665 3.27897 100.583 3.35908 101.298 3.51931C102.014 3.67954 102.574 3.897 102.978 4.17167C103.382 4.43491 103.657 4.7382 103.802 5.08154C103.958 5.42489 104.036 5.77969 104.036 6.14592V6.26609H99.805C99.7947 6.18598 99.7739 6.10014 99.7428 6.00858C99.7117 5.90558 99.6391 5.81402 99.5251 5.73391C99.411 5.64235 99.2399 5.56795 99.0118 5.51073C98.7941 5.44206 98.4986 5.40773 98.1253 5.40773H98.1097C97.7676 5.40773 97.4876 5.42489 97.2699 5.45923C97.0625 5.48212 96.8966 5.52217 96.7721 5.5794C96.6581 5.62518 96.5803 5.68813 96.5388 5.76824C96.4974 5.84835 96.4766 5.93991 96.4766 6.04292V6.06009C96.4766 6.15165 96.4974 6.23748 96.5388 6.3176C96.5803 6.39771 96.6581 6.46638 96.7721 6.5236C96.8862 6.58083 97.0417 6.63233 97.2387 6.67811C97.4461 6.71245 97.7105 6.73534 98.032 6.74678L99.7895 6.79828C100.733 6.83262 101.5 6.91845 102.091 7.05579C102.682 7.19313 103.144 7.3877 103.476 7.63948C103.818 7.87983 104.046 8.1774 104.16 8.53219C104.284 8.87554 104.347 9.27611 104.347 9.73391V9.85408C104.347 10.2775 104.274 10.6838 104.129 11.073C103.994 11.4506 103.719 11.7883 103.305 12.0858C102.89 12.372 102.304 12.6009 101.547 12.7725C100.79 12.9442 99.7998 13.03 98.5763 13.03H97.7209Z" fill="#00DF95"/>
        <path d="M105.225 12.7725V0H109.455V7.14163L112.317 3.53648H116.874L113.468 7.62232L117.372 12.7725H112.566L109.455 8.61803V12.7725H105.225Z" fill="#00DF95"/>
        <path d="M118.65 13.1502H120.547C120.703 13.1502 120.807 13.1216 120.858 13.0644C120.91 13.0072 120.936 12.9385 120.936 12.8584V12.8412C120.936 12.7496 120.905 12.6352 120.843 12.4979C120.781 12.3491 120.693 12.1545 120.578 11.9142L116.628 3.53648H121.138L123.471 9.47639L125.633 3.53648H129.833L125.804 13.1674C125.4 14.1402 124.949 14.8555 124.451 15.3133C123.964 15.7711 123.342 16 122.585 16H118.65V13.1502Z" fill="#00DF95"/>
        <path d="M134.516 2.76395H130.286V0H134.516V2.76395ZM134.516 12.7725H130.286V3.53648H134.516V12.7725Z" fill="#00DF95"/>
        <path d="M140 12.7725H135.614V9.42489H140V12.7725Z" fill="#00DF95"/>
    </symbol>
    <symbol id="logo--menu" viewBox="0 0 200 14" fill="none">
        <path d="M0 0H5.78559L9.16793 6.23216L12.6096 0H18.1578V11.0927H13.9893V4.17465L10.1174 11.0927H7.96631L4.10925 4.17465V11.0927H0V0Z" fill="white"/>
        <path d="M25.209 11.3163C24.3585 11.3163 23.6168 11.2517 22.9838 11.1225C22.3509 11.0032 21.8119 10.8392 21.3668 10.6305C20.9218 10.4118 20.5558 10.1633 20.269 9.88498C19.9822 9.60667 19.7548 9.31345 19.5866 9.00532C19.4284 8.69719 19.3147 8.3841 19.2454 8.06603C19.1861 7.74796 19.1564 7.4448 19.1564 7.15655V6.918C19.1564 6.63969 19.1861 6.34647 19.2454 6.03834C19.3048 5.72027 19.4136 5.41214 19.5718 5.11395C19.7399 4.80582 19.9674 4.51757 20.2542 4.2492C20.541 3.97089 20.9069 3.73234 21.352 3.53355C21.797 3.32481 22.336 3.16081 22.969 3.04153C23.6019 2.91232 24.3437 2.84771 25.1942 2.84771H26.3217C27.2019 2.84771 27.9634 2.91232 28.6062 3.04153C29.2491 3.16081 29.793 3.32481 30.238 3.53355C30.6831 3.74228 31.0441 3.98083 31.321 4.2492C31.5979 4.51757 31.8105 4.80582 31.9589 5.11395C32.1171 5.41214 32.221 5.7153 32.2704 6.02343C32.3199 6.33156 32.3446 6.62478 32.3446 6.90309V7.17146C32.3446 7.45971 32.3199 7.76287 32.2704 8.08094C32.221 8.38907 32.1221 8.69719 31.9737 9.00532C31.8254 9.31345 31.6127 9.60667 31.3358 9.88498C31.0688 10.1633 30.7078 10.4118 30.2529 10.6305C29.8078 10.8392 29.2589 11.0032 28.6062 11.1225C27.9634 11.2517 27.1969 11.3163 26.3068 11.3163H25.209ZM25.7579 5.11395C25.2634 5.11395 24.853 5.17359 24.5266 5.29286C24.2003 5.4022 23.9431 5.54633 23.7552 5.72524C23.5673 5.90415 23.4338 6.10792 23.3547 6.33653C23.2855 6.5552 23.2508 6.77387 23.2508 6.99254V7.05218C23.2508 7.27086 23.2855 7.49947 23.3547 7.73802C23.4338 7.96663 23.5673 8.18033 23.7552 8.37913C23.9431 8.56798 24.1953 8.72701 24.5118 8.85623C24.8382 8.97551 25.2535 9.03514 25.7579 9.03514H25.7728C26.2673 9.03514 26.6727 8.97054 26.9892 8.84132C27.3156 8.71211 27.5727 8.55307 27.7606 8.36422C27.9485 8.16542 28.0771 7.95172 28.1463 7.72311C28.2255 7.48456 28.265 7.26092 28.265 7.05218V6.99254C28.265 6.77387 28.2255 6.5552 28.1463 6.33653C28.0771 6.10792 27.9485 5.90415 27.7606 5.72524C27.5727 5.54633 27.3156 5.4022 26.9892 5.29286C26.6727 5.17359 26.2673 5.11395 25.7728 5.11395H25.7579Z" fill="white"/>
        <path d="M33.2163 0H37.2513V4.47284C37.3403 4.38339 37.4837 4.25417 37.6815 4.0852C37.8892 3.90628 38.1612 3.73234 38.4975 3.56337C38.8337 3.38445 39.2343 3.23039 39.6991 3.10117C40.1738 2.96202 40.7227 2.89244 41.3458 2.89244H41.4348C42.1765 2.89244 42.7996 2.99184 43.304 3.19063C43.8083 3.38942 44.2089 3.63791 44.5056 3.9361C44.8122 4.23429 45.0297 4.5623 45.1583 4.92013C45.2869 5.27795 45.3512 5.6159 45.3512 5.93397V11.0927H41.3012V7.26092C41.3012 6.72417 41.1529 6.28186 40.8562 5.93397C40.5595 5.58608 40.065 5.41214 39.3727 5.41214C38.6903 5.41214 38.1662 5.59602 37.8002 5.96379C37.4343 6.33156 37.2513 6.79872 37.2513 7.36528V11.0927H33.2163V0Z" fill="white"/>
        <path d="M47.0645 11.4207H48.8743C49.0227 11.4207 49.1216 11.3958 49.171 11.3461C49.2205 11.2964 49.2452 11.2368 49.2452 11.1672V11.1523C49.2452 11.0728 49.2155 10.9734 49.1562 10.8541C49.0968 10.7249 49.0128 10.5559 48.904 10.3472L45.1359 3.07135H49.438L51.6633 8.23003L53.7253 3.07135H57.7307L53.8885 11.4356C53.5028 12.2804 53.0726 12.9017 52.5979 13.2993C52.133 13.6968 51.5396 13.8956 50.8177 13.8956H47.0645V11.4207Z" fill="white"/>
        <path d="M62.1982 11.0927H58.1631V0H62.1982V11.0927Z" fill="white"/>
        <path d="M69.3718 4.81576C68.9861 4.81576 68.6597 4.84558 68.3927 4.90522C68.1257 4.96486 67.9031 5.04934 67.7251 5.15868C67.5471 5.25808 67.4037 5.38232 67.2949 5.53142C67.196 5.68051 67.1218 5.84451 67.0724 6.02343H71.6712C71.5921 5.64572 71.3794 5.3525 71.0333 5.14377C70.6871 4.9251 70.1333 4.81576 69.3718 4.81576ZM75.6766 8.20021C75.6766 8.38907 75.6519 8.5978 75.6024 8.82641C75.553 9.04508 75.4541 9.27369 75.3057 9.51225C75.1574 9.74086 74.9497 9.9645 74.6827 10.1832C74.4156 10.4018 74.0645 10.5957 73.6294 10.7646C73.1942 10.9237 72.6602 11.0529 72.0272 11.1523C71.4042 11.2616 70.6575 11.3163 69.7872 11.3163H69.0009C67.7746 11.3163 66.7757 11.192 66.0043 10.9436C65.2329 10.6851 64.6296 10.3571 64.1944 9.95953C63.7593 9.56195 63.4626 9.11963 63.3043 8.63259C63.1461 8.1356 63.067 7.65353 63.067 7.18637V6.88818C63.067 6.42101 63.1412 5.94888 63.2895 5.47178C63.4378 4.99467 63.7247 4.5623 64.1499 4.17465C64.5851 3.78701 65.1834 3.46894 65.9449 3.22045C66.7164 2.97196 67.7202 2.84771 68.9564 2.84771H69.7723C70.6426 2.84771 71.3893 2.91232 72.0124 3.04153C72.6453 3.16081 73.1794 3.32978 73.6146 3.54846C74.0596 3.76713 74.4156 4.02059 74.6827 4.30884C74.9596 4.59709 75.1722 4.90522 75.3206 5.23323C75.4689 5.5513 75.5678 5.88427 75.6173 6.23216C75.6766 6.57011 75.7063 6.89812 75.7063 7.21619V7.66347H67.0279C67.0576 7.8722 67.1218 8.06603 67.2207 8.24494C67.3295 8.42386 67.4779 8.58289 67.6658 8.72204C67.8636 8.85126 68.1059 8.95563 68.3927 9.03514C68.6894 9.10472 69.0405 9.13951 69.446 9.13951H69.4608C69.9355 9.13951 70.3163 9.09975 70.6031 9.02023C70.8998 8.93078 71.1272 8.83138 71.2855 8.72204C71.4437 8.61271 71.5476 8.50834 71.597 8.40895C71.6564 8.29961 71.691 8.22009 71.7009 8.17039H75.6766V8.20021Z" fill="white"/>
        <path d="M75.2547 3.07135H79.5717L81.7672 8.28967L83.8589 3.07135H87.9979L84.3633 11.0927H79.0376L75.2547 3.07135Z" fill="white"/>
        <path d="M93.2071 11.3163C92.406 11.3163 91.7187 11.2666 91.145 11.1672C90.5714 11.0777 90.0868 10.9585 89.6912 10.8094C89.2956 10.6603 88.9792 10.4863 88.7418 10.2875C88.5044 10.0887 88.3215 9.88498 88.1929 9.67625C88.0643 9.45758 87.9803 9.24885 87.9407 9.05005C87.9012 8.84132 87.8814 8.6475 87.8814 8.46858V8.36422H91.9906C91.9906 8.44373 92.0055 8.53816 92.0351 8.6475C92.0648 8.75683 92.134 8.86617 92.2428 8.97551C92.3615 9.0749 92.5296 9.16436 92.7472 9.24388C92.9648 9.31345 93.2615 9.34824 93.6373 9.34824H93.667C94.023 9.34824 94.3098 9.32836 94.5274 9.2886C94.745 9.24885 94.9082 9.19915 95.0169 9.13951C95.1356 9.07987 95.2147 9.01029 95.2543 8.93078C95.2939 8.85126 95.3136 8.76677 95.3136 8.67732V8.6475C95.3136 8.5481 95.2939 8.46361 95.2543 8.39404C95.2246 8.31452 95.1554 8.24494 95.0466 8.1853C94.9378 8.12567 94.7796 8.08094 94.5719 8.05112C94.3741 8.0213 94.112 8.00142 93.7857 7.99148L92.0945 7.94675C91.2538 7.91693 90.5665 7.82748 90.0324 7.67838C89.4984 7.51935 89.0781 7.32552 88.7715 7.09691C88.4649 6.85836 88.2523 6.59496 88.1336 6.30671C88.0248 6.01846 87.9704 5.72524 87.9704 5.42705V5.33759C87.9704 5.00958 88.0347 4.69649 88.1632 4.3983C88.3017 4.10011 88.5588 3.83671 88.9347 3.60809C89.3105 3.36954 89.8396 3.18566 90.522 3.05644C91.2143 2.91729 92.1093 2.84771 93.2071 2.84771H93.9933C95.0614 2.84771 95.9367 2.91729 96.6191 3.05644C97.3015 3.1956 97.8356 3.38445 98.2213 3.623C98.607 3.85162 98.8691 4.11502 99.0075 4.41321C99.1559 4.71139 99.23 5.01952 99.23 5.33759V5.44196H95.195C95.1851 5.37238 95.1653 5.29783 95.1356 5.21832C95.106 5.12886 95.0367 5.04934 94.9279 4.97977C94.8191 4.90025 94.656 4.83564 94.4384 4.78594C94.2307 4.7263 93.9488 4.69649 93.5928 4.69649H93.578C93.2516 4.69649 92.9846 4.71139 92.7769 4.74121C92.5791 4.76109 92.4208 4.79588 92.3022 4.84558C92.1934 4.88534 92.1192 4.94001 92.0796 5.00958C92.0401 5.07916 92.0203 5.15868 92.0203 5.24814V5.26305C92.0203 5.34256 92.0401 5.41711 92.0796 5.48669C92.1192 5.55627 92.1934 5.6159 92.3022 5.6656C92.411 5.7153 92.5593 5.76003 92.7472 5.79979C92.945 5.82961 93.1972 5.84948 93.5038 5.85942L95.1801 5.90415C96.0801 5.93397 96.812 6.00852 97.3757 6.1278C97.9394 6.24707 98.3795 6.41604 98.696 6.63472C99.0224 6.84345 99.2399 7.10188 99.3487 7.41001C99.4674 7.7082 99.5267 8.05609 99.5267 8.45367V8.55804C99.5267 8.92581 99.4575 9.27867 99.319 9.61661C99.1905 9.94462 98.9284 10.2378 98.5328 10.4963C98.1372 10.7448 97.5784 10.9436 96.8565 11.0927C96.1345 11.2417 95.19 11.3163 94.023 11.3163H93.2071Z" fill="white"/>
        <path d="M100.364 11.0927V0H104.399V6.20234L107.129 3.07135H111.476L108.227 6.61981L111.95 11.0927H107.366L104.399 7.48456V11.0927H100.364Z" fill="white"/>
        <path d="M113.169 11.4207H114.979C115.128 11.4207 115.226 11.3958 115.276 11.3461C115.325 11.2964 115.35 11.2368 115.35 11.1672V11.1523C115.35 11.0728 115.32 10.9734 115.261 10.8541C115.202 10.7249 115.118 10.5559 115.009 10.3472L111.241 3.07135H115.543L117.768 8.23003L119.83 3.07135H123.836L119.993 11.4356C119.608 12.2804 119.177 12.9017 118.703 13.2993C118.238 13.6968 117.645 13.8956 116.923 13.8956H113.169V11.4207Z" fill="white"/>
        <path d="M128.303 2.40043H124.268V0H128.303V2.40043ZM128.303 11.0927H124.268V3.07135H128.303V11.0927Z" fill="white"/>
        <path d="M133.533 11.0927H129.35V8.1853H133.533V11.0927Z" fill="white"/>
        <path d="M134.702 0H142.534C144.127 0 145.437 0.154064 146.466 0.462193C147.494 0.760383 148.305 1.15797 148.898 1.65495C149.502 2.14199 149.917 2.69862 150.145 3.32481C150.382 3.95101 150.501 4.59212 150.501 5.24814V5.69542C150.501 6.11289 150.456 6.54029 150.367 6.97764C150.278 7.40504 150.12 7.81754 149.892 8.21512C149.675 8.61271 149.373 8.99041 148.987 9.34824C148.602 9.69613 148.112 9.99929 147.519 10.2577C146.935 10.5162 146.233 10.7199 145.412 10.869C144.601 11.0181 143.647 11.0927 142.549 11.0927H134.702V0ZM138.915 8.15548H142.045C142.965 8.15548 143.691 8.06603 144.226 7.88711C144.769 7.7082 145.18 7.48953 145.457 7.2311C145.744 6.96273 145.927 6.67945 146.006 6.38126C146.085 6.07313 146.124 5.79979 146.124 5.56124V5.47178C146.124 5.23323 146.085 4.96486 146.006 4.66667C145.927 4.36848 145.744 4.09017 145.457 3.83174C145.18 3.56337 144.769 3.34469 144.226 3.17572C143.691 2.99681 142.965 2.90735 142.045 2.90735H138.915V8.15548Z" fill="white"/>
        <path d="M155.423 2.40043H151.388V0H155.423V2.40043ZM155.423 11.0927H151.388V3.07135H155.423V11.0927Z" fill="white"/>
        <path d="M162.686 5.1885C162.241 5.1885 161.87 5.2382 161.573 5.33759C161.276 5.42705 161.039 5.54633 160.861 5.69542C160.683 5.84452 160.554 6.01846 160.475 6.21725C160.406 6.40611 160.371 6.59993 160.371 6.79872V6.87327C160.371 7.082 160.411 7.29073 160.49 7.49947C160.569 7.69826 160.698 7.87717 160.876 8.03621C161.054 8.19524 161.291 8.32446 161.588 8.42385C161.885 8.52325 162.25 8.57295 162.686 8.57295H162.775C163.22 8.57295 163.6 8.52325 163.917 8.42385C164.243 8.32446 164.51 8.19524 164.718 8.03621C164.926 7.87717 165.079 7.69826 165.178 7.49947C165.277 7.29073 165.326 7.082 165.326 6.87327V6.82854C165.326 6.61981 165.277 6.41605 165.178 6.21725C165.079 6.01846 164.926 5.84452 164.718 5.69542C164.51 5.53639 164.243 5.41214 163.917 5.32268C163.6 5.23323 163.22 5.1885 162.775 5.1885H162.686ZM162.374 14C161.543 14 160.826 13.9453 160.223 13.836C159.63 13.7366 159.125 13.6024 158.71 13.4334C158.295 13.2744 157.958 13.0905 157.701 12.8818C157.454 12.6731 157.261 12.4594 157.123 12.2407C156.984 12.0319 156.89 11.8282 156.841 11.6294C156.801 11.4405 156.781 11.2765 156.781 11.1374V11.0927H160.831C160.841 11.1423 160.866 11.202 160.905 11.2716C160.955 11.3511 161.049 11.4256 161.187 11.4952C161.336 11.5747 161.543 11.6393 161.81 11.689C162.087 11.7387 162.453 11.7636 162.908 11.7636H162.953C163.437 11.7636 163.838 11.7039 164.154 11.5847C164.471 11.4654 164.718 11.3113 164.896 11.1225C165.074 10.9336 165.198 10.7199 165.267 10.4814C165.336 10.2329 165.371 9.97941 165.371 9.72098V9.55698C165.282 9.64643 165.148 9.76074 164.97 9.89989C164.792 10.0291 164.55 10.1583 164.243 10.2875C163.937 10.4168 163.556 10.5261 163.101 10.6155C162.656 10.705 162.117 10.7497 161.484 10.7497H161.247C160.327 10.7497 159.551 10.6454 158.918 10.4366C158.295 10.218 157.785 9.92971 157.39 9.57188C157.004 9.21406 156.722 8.80653 156.544 8.34931C156.376 7.89208 156.292 7.41995 156.292 6.93291V6.66454C156.292 6.19737 156.371 5.74015 156.529 5.29286C156.687 4.84558 156.949 4.44799 157.315 4.10011C157.681 3.74228 158.161 3.459 158.754 3.25027C159.358 3.03159 160.099 2.92226 160.98 2.92226H161.306C161.959 2.92226 162.513 2.96699 162.967 3.05644C163.432 3.1459 163.823 3.25524 164.139 3.38445C164.466 3.50373 164.723 3.63294 164.911 3.7721C165.099 3.90131 165.247 4.01065 165.356 4.10011V3.07135H169.391V9.7508C169.391 10.1583 169.317 10.6056 169.168 11.0927C169.03 11.5896 168.748 12.0518 168.323 12.4792C167.907 12.9166 167.314 13.2794 166.543 13.5676C165.771 13.8559 164.763 14 163.516 14H162.374Z" fill="white"/>
        <path d="M174.619 2.40043H170.583V0H174.619V2.40043ZM174.619 11.0927H170.583V3.07135H174.619V11.0927Z" fill="white"/>
        <path d="M179.048 11.0927C178.355 11.0927 177.826 10.9038 177.46 10.5261C177.104 10.1484 176.926 9.57685 176.926 8.8115V5.53142H175.398V3.07135H176.926V0.730564H180.932V3.07135H182.46V5.53142H180.932V7.90202C180.932 8.15051 180.971 8.32943 181.05 8.43876C181.129 8.5481 181.312 8.60277 181.599 8.60277H182.46V11.0927H179.048Z" fill="white"/>
        <path d="M190.555 7.30564L187.884 7.78275C187.538 7.84238 187.286 7.9219 187.128 8.0213C186.979 8.1207 186.905 8.26979 186.905 8.46858V8.48349C186.905 8.57295 186.925 8.66738 186.965 8.76677C187.004 8.86617 187.068 8.95563 187.157 9.03514C187.256 9.11466 187.385 9.17927 187.543 9.22897C187.711 9.27866 187.919 9.30351 188.166 9.30351C188.532 9.30351 188.863 9.25879 189.16 9.16933C189.457 9.06993 189.709 8.94569 189.917 8.79659C190.124 8.63756 190.283 8.45864 190.391 8.25985C190.5 8.06106 190.555 7.85729 190.555 7.64856V7.30564ZM190.629 10.0192C190.53 10.1186 190.386 10.2378 190.199 10.377C190.021 10.5162 189.783 10.6503 189.487 10.7796C189.19 10.9088 188.824 11.0181 188.389 11.1076C187.963 11.197 187.464 11.2417 186.89 11.2417H186.727C186.055 11.2417 185.486 11.1722 185.021 11.033C184.556 10.8839 184.176 10.6901 183.879 10.4515C183.582 10.2031 183.365 9.92474 183.226 9.61661C183.098 9.30848 183.033 8.99041 183.033 8.66241V8.48349C183.033 8.14554 183.088 7.84736 183.197 7.58892C183.315 7.32055 183.503 7.09194 183.76 6.90309C184.017 6.7043 184.349 6.54526 184.754 6.42598C185.17 6.29677 185.674 6.20731 186.267 6.15761L190.11 5.8147C190.278 5.79482 190.391 5.75506 190.451 5.69542C190.52 5.62584 190.555 5.53639 190.555 5.42705C190.555 5.35747 190.535 5.28789 190.495 5.21832C190.466 5.1388 190.391 5.06922 190.273 5.00958C190.154 4.94995 189.981 4.90522 189.754 4.8754C189.526 4.83564 189.215 4.81576 188.819 4.81576H188.76C188.334 4.81576 188.003 4.84558 187.766 4.90522C187.528 4.96486 187.35 5.0394 187.232 5.12886C187.123 5.21832 187.054 5.31274 187.024 5.41214C186.994 5.5016 186.974 5.57614 186.965 5.63578H183.226V5.54633C183.226 5.27795 183.266 4.98971 183.345 4.68158C183.434 4.36351 183.647 4.07029 183.983 3.80192C184.329 3.53355 184.843 3.3099 185.526 3.13099C186.208 2.95208 187.148 2.86262 188.344 2.86262H189.175C190.006 2.86262 190.713 2.90238 191.296 2.9819C191.89 3.05147 192.379 3.15584 192.765 3.29499C193.161 3.42421 193.472 3.5733 193.7 3.74228C193.937 3.91125 194.11 4.09514 194.219 4.29393C194.337 4.48278 194.412 4.67661 194.441 4.8754C194.481 5.07419 194.501 5.26305 194.501 5.44196V8.40895C194.501 8.51828 194.52 8.60277 194.56 8.66241C194.609 8.72204 194.703 8.75186 194.842 8.75186H195.272V11.0927H191.919C191.573 11.0927 191.286 11.0032 191.059 10.8243C190.832 10.6354 190.688 10.3671 190.629 10.0192Z" fill="white"/>
        <path d="M200 11.0927H195.965V0H200V11.0927Z" fill="white"/>
    </symbol>
    <symbol id="close" viewBox="0 0 32 32" fill="none">
        <path d="M10.3539 11.874L14.4799 16L10.354 20.126C10.138 20.342 10.0109 20.6292 10.0008 20.9245C9.99057 21.2197 10.0981 21.4988 10.2997 21.7004C10.5013 21.902 10.7804 22.0095 11.0756 21.9993C11.3709 21.9892 11.6581 21.8621 11.8741 21.6461L16 17.5202L20.126 21.6461C20.342 21.8621 20.6292 21.9892 20.9245 21.9993C21.2197 22.0095 21.4988 21.902 21.7004 21.7004C21.902 21.4988 22.0095 21.2197 21.9993 20.9245C21.9892 20.6292 21.8621 20.342 21.6461 20.126L17.5202 16L21.6462 11.874C21.8622 11.658 21.9893 11.3708 21.9994 11.0755C22.0096 10.7803 21.9021 10.5012 21.7005 10.2996C21.4989 10.098 21.2198 9.99048 20.9246 10.0007C20.6293 10.0108 20.3421 10.1379 20.1261 10.3539L16 14.4799L11.874 10.3539C11.658 10.1379 11.3708 10.0108 11.0755 10.0007C10.7803 9.99048 10.5012 10.098 10.2996 10.2996C10.098 10.5012 9.99048 10.7803 10.0007 11.0755C10.0108 11.3708 10.1379 11.658 10.3539 11.874Z" fill="white"/>
        <path fill-rule="evenodd" clip-rule="evenodd" d="M0 16C0 24.8224 7.1776 32 16 32C24.8224 32 32 24.8224 32 16C32 7.1776 24.8224 0 16 0C7.1776 0 0 7.1776 0 16ZM2.13333 16C2.13333 8.35413 8.35413 2.13333 16 2.13333C23.6459 2.13333 29.8667 8.35413 29.8667 16C29.8667 23.6459 23.6459 29.8667 16 29.8667C8.35413 29.8667 2.13333 23.6459 2.13333 16Z" fill="white"/>
    </symbol>
    <symbol id="arrow" viewBox="0 0 24 14" fill="none">
        <path fill-rule="evenodd" clip-rule="evenodd" d="M15.4324 12.8333L20.6779 7.83333H0V6.16667H20.6779L15.4324 1.16667L16.6563 0L24 7L16.6563 14L15.4324 12.8333Z" fill="white"/>
    </symbol>
    <symbol id="telegram" viewBox="0 0 16 14">
        <path d="M14.6359 0.451024C14.6359 0.451024 16.116 -0.12612 15.9927 1.27552C15.9516 1.85266 15.5816 3.87267 15.2938 6.05757L14.307 12.5298C14.307 12.5298 14.2248 13.478 13.4847 13.6429C12.7447 13.8078 11.6346 13.0658 11.429 12.9009C11.2645 12.7772 8.34543 10.9221 7.31757 10.0151C7.02977 9.76779 6.70086 9.27309 7.35869 8.69595L11.6757 4.57348C12.1691 4.07879 12.6624 2.9245 10.6067 4.32614L4.85071 8.24248C4.85071 8.24248 4.19288 8.65472 2.95945 8.2837L0.287017 7.45921C0.287017 7.45921 -0.699728 6.84084 0.985961 6.22247C5.0974 4.28491 10.1545 2.30613 14.6359 0.451024Z"/>
    </symbol>
    <symbol id="viber" viewBox="0 0 16 16">
        <path d="M9.62971 0H6.37045C3.23341 0 0.666748 2.51895 0.666748 5.59767V7.99667C0.666748 10.1558 1.95008 12.1349 3.92601 13.0546V15.7334C3.92601 15.9733 4.23156 16.0933 4.39453 15.9134L6.75749 13.5943H9.62971C12.7667 13.5943 15.3334 11.0754 15.3334 7.99667V5.59767C15.3334 2.51895 12.7667 0 9.62971 0ZM11.7686 10.4956L10.9334 11.2953C10.0575 12.1349 7.79638 11.1753 5.80008 9.17618C3.80379 7.17701 2.92786 4.93794 3.76304 4.09829L4.57786 3.29863C4.88341 2.99875 5.39267 3.01874 5.73897 3.31862L6.92045 4.51812C7.34823 4.93794 7.1649 5.65764 6.6149 5.81758C6.22786 5.93753 5.96304 6.35735 6.08527 6.73719C6.28897 7.61683 7.42971 8.73636 8.28527 8.95627C8.6723 9.03623 9.10008 8.83632 9.24267 8.45648C9.42601 7.9167 10.1593 7.75677 10.5667 8.17659L11.7482 9.37609C12.0742 9.65598 12.0742 10.1558 11.7686 10.4956ZM8.73341 3.79842C8.65193 3.79842 8.57045 3.79842 8.48897 3.81841C8.34638 3.8384 8.20379 3.71845 8.18341 3.57851C8.16304 3.43857 8.28527 3.29863 8.42786 3.27863C8.52971 3.25864 8.63156 3.25864 8.73341 3.25864C10.2205 3.25864 11.4427 4.45814 11.4427 5.91753C11.4427 6.01749 11.4427 6.11745 11.4223 6.21741C11.4019 6.35735 11.2593 6.4773 11.1167 6.45731C10.9742 6.43732 10.8519 6.29738 10.8723 6.15743C10.8723 6.07747 10.8927 5.9975 10.8927 5.91753C10.913 4.75802 9.93527 3.79842 8.73341 3.79842ZM10.363 5.93753C10.363 6.07747 10.2408 6.19742 10.0982 6.19742C9.95564 6.19742 9.83342 6.07747 9.83342 5.93753C9.83342 5.35777 9.34453 4.87797 8.75379 4.87797C8.61119 4.87797 8.48897 4.75802 8.48897 4.61808C8.48897 4.47813 8.61119 4.35818 8.75379 4.35818C9.62971 4.33819 10.363 5.05789 10.363 5.93753ZM12.4408 6.79717C12.4001 6.93711 12.2575 7.03707 12.0945 6.99708C11.9519 6.9571 11.8705 6.81716 11.9112 6.67722C11.9723 6.43732 11.9927 6.19742 11.9927 5.93753C11.9927 4.17826 10.526 2.73886 8.73341 2.73886C8.65193 2.73886 8.57045 2.73886 8.48897 2.73886C8.34638 2.73886 8.20378 2.6389 8.20378 2.49896C8.20378 2.35902 8.30564 2.21908 8.44823 2.21908C8.55008 2.21908 8.65193 2.19908 8.73341 2.19908C10.8316 2.19908 12.5427 3.87838 12.5427 5.93753C12.5427 6.21741 12.5019 6.51728 12.4408 6.79717Z"/>
    </symbol>
    <symbol id="whatsapp" viewBox="0 0 16 16">
        <path d="M8 0C3.582 0 0 3.582 0 8C0 9.50081 0.421561 10.9 1.14062 12.1003L0.0716146 16L4.05469 14.9544C5.21957 15.6167 6.56433 16 8 16C12.418 16 16 12.418 16 8C16 3.582 12.418 0 8 0ZM5.26172 4.26823C5.39172 4.26823 5.52529 4.26744 5.64063 4.27344C5.78329 4.27677 5.93857 4.28722 6.08724 4.61589C6.26391 5.00655 6.64858 5.9866 6.69792 6.08594C6.74725 6.18527 6.78221 6.30229 6.71354 6.43229C6.64821 6.56563 6.61423 6.64632 6.51823 6.76432C6.4189 6.87899 6.31005 7.02141 6.22005 7.10807C6.12072 7.20741 6.01815 7.31632 6.13281 7.51432C6.24748 7.71232 6.64571 8.36142 7.23437 8.88542C7.99104 9.56142 8.62946 9.76916 8.82812 9.86849C9.02679 9.96782 9.14184 9.95234 9.25651 9.81901C9.37451 9.68901 9.75208 9.24294 9.88542 9.04427C10.0154 8.8456 10.1481 8.87998 10.3281 8.94531C10.5108 9.01065 11.4849 9.49051 11.6836 9.58984C11.8823 9.68918 12.0125 9.73834 12.0625 9.81901C12.1138 9.90234 12.1139 10.2991 11.9492 10.7617C11.7846 11.2237 10.9759 11.6705 10.6133 11.7018C10.2473 11.7358 9.90571 11.8663 8.23438 11.2083C6.21838 10.4143 4.94699 8.34948 4.84766 8.21615C4.74832 8.08615 4.04036 7.1426 4.04036 6.16927C4.04036 5.1926 4.55244 4.71429 4.73177 4.51562C4.91444 4.31696 5.12839 4.26823 5.26172 4.26823Z"/>
    </symbol>
    <symbol id="messenger" viewBox="0 0 16 16">
        <path d="M8 0C3.582 0 0 3.582 0 8C0 9.50081 0.421561 10.9 1.14062 12.1003L0.0716146 16L4.05469 14.9544C5.21957 15.6167 6.56433 16 8 16C12.418 16 16 12.418 16 8C16 3.582 12.418 0 8 0ZM5.26172 4.26823C5.39172 4.26823 5.52529 4.26744 5.64063 4.27344C5.78329 4.27677 5.93857 4.28722 6.08724 4.61589C6.26391 5.00655 6.64858 5.9866 6.69792 6.08594C6.74725 6.18527 6.78221 6.30229 6.71354 6.43229C6.64821 6.56563 6.61423 6.64632 6.51823 6.76432C6.4189 6.87899 6.31005 7.02141 6.22005 7.10807C6.12072 7.20741 6.01815 7.31632 6.13281 7.51432C6.24748 7.71232 6.64571 8.36142 7.23437 8.88542C7.99104 9.56142 8.62946 9.76916 8.82812 9.86849C9.02679 9.96782 9.14184 9.95234 9.25651 9.81901C9.37451 9.68901 9.75208 9.24294 9.88542 9.04427C10.0154 8.8456 10.1481 8.87998 10.3281 8.94531C10.5108 9.01065 11.4849 9.49051 11.6836 9.58984C11.8823 9.68918 12.0125 9.73834 12.0625 9.81901C12.1138 9.90234 12.1139 10.2991 11.9492 10.7617C11.7846 11.2237 10.9759 11.6705 10.6133 11.7018C10.2473 11.7358 9.90571 11.8663 8.23438 11.2083C6.21838 10.4143 4.94699 8.34948 4.84766 8.21615C4.74832 8.08615 4.04036 7.1426 4.04036 6.16927C4.04036 5.1926 4.55244 4.71429 4.73177 4.51562C4.91444 4.31696 5.12839 4.26823 5.26172 4.26823Z"/>
    </symbol>
    <symbol id="instagram" viewBox="0 0 16 16">
        <path d="M8.00179 3.8978C5.73162 3.8978 3.9005 5.72933 3.9005 8C3.9005 10.2707 5.73162 12.1022 8.00179 12.1022C10.2719 12.1022 12.1031 10.2707 12.1031 8C12.1031 5.72933 10.2719 3.8978 8.00179 3.8978ZM8.00179 10.667C6.53475 10.667 5.33542 9.47094 5.33542 8C5.33542 6.52906 6.53118 5.33304 8.00179 5.33304C9.47239 5.33304 10.6682 6.52906 10.6682 8C10.6682 9.47094 9.46882 10.667 8.00179 10.667ZM13.2274 3.73C13.2274 4.26197 12.7991 4.68682 12.2708 4.68682C11.739 4.68682 11.3142 4.2584 11.3142 3.73C11.3142 3.20161 11.7426 2.77318 12.2708 2.77318C12.7991 2.77318 13.2274 3.20161 13.2274 3.73ZM15.9438 4.7011C15.8831 3.41939 15.5904 2.28406 14.6516 1.34866C13.7165 0.413254 12.5814 0.120495 11.2999 0.0562312C9.97925 -0.0187437 6.02075 -0.0187437 4.70006 0.0562312C3.4222 0.116925 2.28712 0.409684 1.34835 1.34509C0.409593 2.28049 0.120468 3.41582 0.0562186 4.69753C-0.0187395 6.01852 -0.0187395 9.97791 0.0562186 11.2989C0.116899 12.5806 0.409593 13.7159 1.34835 14.6513C2.28712 15.5867 3.41863 15.8795 4.70006 15.9438C6.02075 16.0187 9.97925 16.0187 11.2999 15.9438C12.5814 15.8831 13.7165 15.5903 14.6516 14.6513C15.5868 13.7159 15.8795 12.5806 15.9438 11.2989C16.0187 9.97791 16.0187 6.02209 15.9438 4.7011ZM14.2376 12.7163C13.9592 13.416 13.4202 13.9551 12.717 14.2372C11.664 14.6549 9.16542 14.5585 8.00179 14.5585C6.83815 14.5585 4.33597 14.6513 3.28656 14.2372C2.58695 13.9587 2.04796 13.4196 1.76598 12.7163C1.34835 11.6631 1.44473 9.1639 1.44473 8C1.44473 6.8361 1.35192 4.33337 1.76598 3.28372C2.04439 2.58396 2.58338 2.04485 3.28656 1.7628C4.33954 1.34509 6.83815 1.44148 8.00179 1.44148C9.16542 1.44148 11.6676 1.34866 12.717 1.7628C13.4166 2.04128 13.9556 2.58039 14.2376 3.28372C14.6552 4.33694 14.5588 6.8361 14.5588 8C14.5588 9.1639 14.6552 11.6666 14.2376 12.7163Z"/>
    </symbol>
    <symbol id="case--arrow" viewBox="0 0 24 14" fill="none">
        <path fill-rule="evenodd" clip-rule="evenodd" d="M15.4324 12.8333L20.6779 7.83333H0V6.16667H20.6779L15.4324 1.16667L16.6563 0L24 7L16.6563 14L15.4324 12.8333Z" fill="white"/>
    </symbol>
    <symbol id="tagline--arrow" viewBox="0 0 30 18">
        <path fill-rule="evenodd" clip-rule="evenodd" d="M19.2905 1.5L25.8473 7.92857H0V10.0714H25.8473L19.2905 16.5L20.8204 18L30 9L20.8204 0L19.2905 1.5Z"/>
    </symbol>
    <symbol id="calendar" viewBox="0 0 22 24" fill="none">
        <path fill-rule="evenodd" clip-rule="evenodd" d="M6.11111 0C6.43526 0 6.74614 0.126428 6.97535 0.351472C7.20456 0.576515 7.33333 0.88174 7.33333 1.2V2.4H14.6667V1.2C14.6667 0.88174 14.7954 0.576515 15.0246 0.351472C15.2539 0.126428 15.5647 0 15.8889 0C16.213 0 16.5239 0.126428 16.7531 0.351472C16.9823 0.576515 17.1111 0.88174 17.1111 1.2V2.4C17.6733 2.4 18.1622 2.4036 18.5717 2.436C19.0544 2.4756 19.5348 2.5608 19.9968 2.7924C20.6869 3.13702 21.2483 3.68731 21.6003 4.3644C21.8362 4.8192 21.923 5.2908 21.9633 5.7648C22 6.2136 22 6.7584 22 7.3896V19.0104C22 19.6416 22 20.1864 21.9633 20.6352C21.923 21.1092 21.8362 21.5808 21.6003 22.0344C21.2484 22.7119 20.6871 23.2626 19.9968 23.6076C19.5348 23.8392 19.0557 23.9244 18.5729 23.9628C18.1158 24 17.5609 24 16.918 24H5.082C4.43911 24 3.88422 24 3.42711 23.964C2.94433 23.9244 2.464 23.8392 2.002 23.6076C1.3121 23.2625 0.751197 22.7118 0.399667 22.0344C0.163778 21.5808 0.0769999 21.108 0.0378888 20.634C-1.22935e-07 20.1852 0 19.638 0 19.008V7.3944C0 6.7608 -3.41485e-08 6.216 0.0366666 5.766C0.077 5.292 0.163778 4.8192 0.399667 4.3656C0.75081 3.68838 1.31129 3.13768 2.00078 2.7924C2.46522 2.5608 2.94556 2.4756 3.42833 2.4372C3.839 2.4036 4.32789 2.4 4.88889 2.4V1.2C4.88889 0.88174 5.01766 0.576515 5.24687 0.351472C5.47608 0.126428 5.78696 0 6.11111 0ZM3.62756 4.8288C3.29511 4.8552 3.17167 4.9008 3.11178 4.9308C2.88181 5.04585 2.69484 5.22942 2.57767 5.4552C2.54711 5.5152 2.50067 5.6352 2.47378 5.9616C2.44933 6.2604 2.44444 6.642 2.44444 7.2H19.5556C19.5556 6.6408 19.5519 6.2592 19.5262 5.9604C19.4993 5.6352 19.4529 5.514 19.4223 5.4552C19.3048 5.22923 19.1174 5.04564 18.887 4.9308C18.8259 4.9008 18.7037 4.8552 18.3724 4.8288C18.0266 4.8 17.5719 4.8 16.8667 4.8H5.13333C4.42933 4.8 3.97344 4.8 3.62756 4.8288ZM19.5556 9.6H2.44444V18.96C2.44444 19.6524 2.44444 20.0988 2.47378 20.4384C2.50067 20.7648 2.54711 20.8848 2.57767 20.9448C2.69484 21.1706 2.88181 21.3542 3.11178 21.4692C3.17167 21.4992 3.29511 21.5448 3.62511 21.5712C3.97222 21.5988 4.42567 21.6 5.12844 21.6H16.8703C17.5743 21.6 18.0278 21.6 18.3737 21.5712C18.7037 21.5448 18.8271 21.4992 18.887 21.4692C19.1192 21.354 19.3062 21.1692 19.4223 20.9448C19.4529 20.8848 19.4993 20.7648 19.5262 20.4408C19.5543 20.1012 19.5556 19.6548 19.5556 18.9648V9.6ZM4.88889 13.2C4.88889 12.8817 5.01766 12.5765 5.24687 12.3515C5.47608 12.1264 5.78696 12 6.11111 12H6.11356C6.27645 12 6.43772 12.0319 6.58787 12.0939C6.73801 12.1559 6.87402 12.2468 6.98789 12.3612C7.10176 12.4755 7.19119 12.6111 7.25094 12.7599C7.31068 12.9087 7.33952 13.0677 7.33578 13.2276V13.23C7.33213 13.3877 7.29685 13.5432 7.23195 13.6875C7.16706 13.8318 7.07382 13.9621 6.95758 14.071C6.84134 14.1799 6.70437 14.2652 6.55451 14.3221C6.40465 14.3789 6.24484 14.4062 6.08422 14.4024H6.08178C5.76273 14.3949 5.45934 14.2651 5.23644 14.0409C5.01353 13.8167 4.8888 13.5157 4.88889 13.2024V13.2ZM9.77778 13.2C9.77778 12.8817 9.90655 12.5765 10.1358 12.3515C10.365 12.1264 10.6758 12 11 12H11.0024C11.1653 12 11.3266 12.0319 11.4768 12.0939C11.6269 12.1559 11.7629 12.2468 11.8768 12.3612C11.9906 12.4755 12.0801 12.6111 12.1398 12.7599C12.1996 12.9087 12.2284 13.0677 12.2247 13.2276V13.23C12.221 13.3877 12.1857 13.5432 12.1208 13.6875C12.0559 13.8318 11.9627 13.9621 11.8465 14.071C11.7302 14.1799 11.5933 14.2652 11.4434 14.3221C11.2935 14.3789 11.1337 14.4062 10.9731 14.4024H10.9707C10.6516 14.3949 10.3482 14.2651 10.1253 14.0409C9.90242 13.8167 9.77769 13.5157 9.77778 13.2024V13.2ZM14.6667 13.2C14.6667 12.8817 14.7954 12.5765 15.0246 12.3515C15.2539 12.1264 15.5647 12 15.8889 12H15.8913C16.2155 12 16.5264 12.1264 16.7556 12.3515C16.9848 12.5765 17.1136 12.8817 17.1136 13.2V13.2024C17.1136 13.3624 17.081 13.5209 17.0178 13.6684C16.9545 13.8159 16.8619 13.9495 16.7453 14.0613C16.6286 14.1731 16.4904 14.2609 16.3387 14.3195C16.187 14.378 16.025 14.4062 15.862 14.4024H15.8596C15.5405 14.3949 15.2371 14.2651 15.0142 14.0409C14.7913 13.8167 14.6666 13.5157 14.6667 13.2024V13.2ZM4.88889 18C4.88889 17.6817 5.01766 17.3765 5.24687 17.1515C5.47608 16.9264 5.78696 16.8 6.11111 16.8H6.11356C6.27645 16.8 6.43772 16.8319 6.58787 16.8939C6.73801 16.9559 6.87402 17.0468 6.98789 17.1612C7.10176 17.2755 7.19119 17.4111 7.25094 17.5599C7.31068 17.7087 7.33952 17.8677 7.33578 18.0276V18.03C7.33213 18.1877 7.29685 18.3432 7.23195 18.4875C7.16706 18.6318 7.07382 18.7621 6.95758 18.871C6.84134 18.9799 6.70437 19.0652 6.55451 19.1221C6.40465 19.1789 6.24484 19.2062 6.08422 19.2024H6.08178C5.76273 19.1949 5.45934 19.0651 5.23644 18.8409C5.01353 18.6167 4.8888 18.3157 4.88889 18.0024V18ZM9.77778 18C9.77778 17.6817 9.90655 17.3765 10.1358 17.1515C10.365 16.9264 10.6758 16.8 11 16.8H11.0024C11.1653 16.8 11.3266 16.8319 11.4768 16.8939C11.6269 16.9559 11.7629 17.0468 11.8768 17.1612C11.9906 17.2755 12.0801 17.4111 12.1398 17.5599C12.1996 17.7087 12.2284 17.8677 12.2247 18.0276V18.03C12.221 18.1877 12.1857 18.3432 12.1208 18.4875C12.0559 18.6318 11.9627 18.7621 11.8465 18.871C11.7302 18.9799 11.5933 19.0652 11.4434 19.1221C11.2935 19.1789 11.1337 19.2062 10.9731 19.2024H10.9707C10.6516 19.1949 10.3482 19.0651 10.1253 18.8409C9.90242 18.6167 9.77769 18.3157 9.77778 18.0024V18ZM14.6667 18C14.6667 17.6817 14.7954 17.3765 15.0246 17.1515C15.2539 16.9264 15.5647 16.8 15.8889 16.8H15.8913C16.0542 16.8 16.2155 16.8319 16.3656 16.8939C16.5158 16.9559 16.6518 17.0468 16.7657 17.1612C16.8795 17.2755 16.969 17.4111 17.0287 17.5599C17.0885 17.7087 17.1173 17.8677 17.1136 18.0276V18.03C17.1099 18.1877 17.0746 18.3432 17.0097 18.4875C16.9448 18.6318 16.8516 18.7621 16.7354 18.871C16.6191 18.9799 16.4821 19.0652 16.3323 19.1221C16.1824 19.1789 16.0226 19.2062 15.862 19.2024H15.8596C15.5405 19.1949 15.2371 19.0651 15.0142 18.8409C14.7913 18.6167 14.6666 18.3157 14.6667 18.0024V18Z" fill="black"/>
    </symbol>
    <symbol id="done" viewBox="0 0 24 24" fill="none">
        <path fill-rule="evenodd" clip-rule="evenodd" d="M12 24C5.39325 24 0 18.6068 0 12C0 5.39329 5.39325 0 12 0C15.191 0 18.2472 1.25842 20.4944 3.5056C22.7416 5.75278 24 8.80898 24 12C24 18.6068 18.6068 24 12 24ZM17.6629 7.55056C17.8877 7.77528 18.0225 8.08987 18.0225 8.40451C18.0225 8.7191 17.8876 9.03374 17.6629 9.25846L10.4719 16.4495C10.2472 16.6742 9.93259 16.809 9.61795 16.809C9.30331 16.809 8.98872 16.6742 8.764 16.4495L6.38197 14.0675C6.06737 13.7529 5.97746 13.3034 6.06737 12.8989C6.15724 12.4944 6.51682 12.1798 6.92133 12.045C7.32583 11.9551 7.77528 12.045 8.08987 12.3596L9.61795 13.9326L15.955 7.59549C16.1797 7.37077 16.4943 7.23596 16.809 7.23596C17.1236 7.19103 17.4382 7.32583 17.6629 7.55056ZM12 2.42697C17.3034 2.42697 21.5731 6.74158 21.5731 12C21.5731 14.5618 20.5843 16.9888 18.7865 18.7865C16.9888 20.5843 14.5618 21.5731 12 21.5731C6.69665 21.5731 2.42697 17.2585 2.42697 12C2.42697 6.74158 6.69665 2.42697 12 2.42697Z" fill="black"/>
    </symbol>
    <symbol id="dollar" viewBox="0 0 25 24" fill="none">
        <path d="M13.7402 7.62754C14.1922 7.64527 14.6187 7.84123 14.9266 8.17256C15.2345 8.5039 15.3987 8.94367 15.3833 9.39572C15.3833 9.61776 15.4716 9.83071 15.6286 9.98772C15.7856 10.1447 15.9985 10.2329 16.2206 10.2329C16.4426 10.2329 16.6555 10.1447 16.8126 9.98772C16.9696 9.83071 17.0578 9.61776 17.0578 9.39572C17.073 8.49965 16.7324 7.63408 16.1105 6.98876C15.4886 6.34344 14.6362 5.97101 13.7402 5.95312H13.3372V5.30233C13.3372 5.08028 13.249 4.86734 13.092 4.71033C12.935 4.55332 12.722 4.46512 12.5 4.46512C12.278 4.46512 12.065 4.55332 11.908 4.71033C11.751 4.86734 11.6628 5.08028 11.6628 5.30233V5.95312H10.9372C10.1285 5.96984 9.35938 6.30621 8.79809 6.88863C8.2368 7.47104 7.92907 8.25208 7.94223 9.06084C7.88261 9.71281 8.0541 10.365 8.42672 10.9033C8.79933 11.4416 9.34935 11.8318 9.98056 12.0056L11.6628 12.5939V16.3725H11.2598C10.8078 16.3547 10.3813 16.1588 10.0734 15.8274C9.76546 15.4961 9.60126 15.0563 9.61665 14.6043C9.61665 14.3822 9.52845 14.1693 9.37144 14.0123C9.21443 13.8553 9.00148 13.7671 8.77944 13.7671C8.5574 13.7671 8.34445 13.8553 8.18745 14.0123C8.03044 14.1693 7.94223 14.3822 7.94223 14.6043C7.92698 15.5004 8.26764 16.3659 8.88953 17.0112C9.51141 17.6566 10.3638 18.029 11.2598 18.0469H11.6628V18.6977C11.6628 18.9197 11.751 19.1327 11.908 19.2897C12.065 19.4467 12.278 19.5349 12.5 19.5349C12.722 19.5349 12.935 19.4467 13.092 19.2897C13.249 19.1327 13.3372 18.9197 13.3372 18.6977V18.0469H14.0628C14.8723 18.0313 15.6425 17.6955 16.2048 17.1129C16.767 16.5304 17.0754 15.7487 17.0622 14.9392C17.1203 14.2875 16.9475 13.6362 16.5741 13.0989C16.2007 12.5617 15.6505 12.1728 15.0194 12L13.3372 11.4117V7.62754H13.7402ZM11.6628 10.8201L10.5331 10.4249C9.96381 10.2251 9.61665 10.0342 9.61665 9.06084C9.60303 8.696 9.73421 8.34058 9.98159 8.07208C10.229 7.80358 10.5725 7.64378 10.9372 7.62754H11.6583L11.6628 10.8201ZM14.4669 13.5751C15.0362 13.7749 15.3833 13.9658 15.3833 14.9392C15.397 15.304 15.2658 15.6594 15.0184 15.9279C14.771 16.1964 14.4275 16.3562 14.0628 16.3725H13.3372V13.1799L14.4669 13.5751ZM15.8488 0H9.15116C3.08642 0 0.5 2.58642 0.5 8.65116V15.3488C0.5 21.4136 3.08642 24 9.15116 24H15.8488C21.9136 24 24.5 21.4136 24.5 15.3488V8.65116C24.5 2.58642 21.9136 0 15.8488 0ZM22.8256 15.3488C22.8256 20.4993 20.9993 22.3256 15.8488 22.3256H9.15116C4.00065 22.3256 2.17442 20.4993 2.17442 15.3488V8.65116C2.17442 3.50065 4.00065 1.67442 9.15116 1.67442H15.8488C20.9993 1.67442 22.8256 3.50065 22.8256 8.65116V15.3488Z" fill="black"/>
    </symbol>
    <symbol id="carousel__arrow" viewBox="0 0 30 18">
        <path fill-rule="evenodd" clip-rule="evenodd" d="M10.7095 16.5L4.15267 10.0714H30V7.92857H4.15267L10.7095 1.5L9.17959 0L0 9L9.17959 18L10.7095 16.5Z"/>
    </symbol>
    <symbol id="close--modal" viewBox="0 0 62 62">
        <path d="M20.0606 23.0058L28.0549 31.0001L20.0608 38.9941C19.6424 39.4126 19.3962 39.9691 19.3765 40.5411C19.3567 41.1132 19.5651 41.654 19.9556 42.0445C20.3462 42.4351 20.887 42.6434 21.459 42.6237C22.0311 42.604 22.5876 42.3578 23.006 41.9394L31.0001 33.9453L38.9942 41.9394C39.4126 42.3578 39.9691 42.604 40.5411 42.6237C41.1132 42.6434 41.654 42.4351 42.0446 42.0445C42.4351 41.654 42.6434 41.1132 42.6237 40.5411C42.604 39.9691 42.3578 39.4126 41.9394 38.9941L33.9453 31.0001L41.9395 23.0058C42.358 22.5874 42.6042 22.0309 42.6239 21.4589C42.6436 20.8868 42.4353 20.346 42.0447 19.9555C41.6542 19.5649 41.1134 19.3566 40.5413 19.3763C39.9693 19.396 39.4128 19.6422 38.9943 20.0606L31.0001 28.0549L23.0058 20.0606C22.5874 19.6422 22.0309 19.396 21.4589 19.3763C20.8868 19.3566 20.346 19.5649 19.9555 19.9554C19.5649 20.346 19.3566 20.8868 19.3763 21.4589C19.396 22.0309 19.6422 22.5874 20.0606 23.0058Z"/>
        <path fill-rule="evenodd" clip-rule="evenodd" d="M0 31C0 48.0934 13.9066 62 31 62C48.0934 62 62 48.0934 62 31C62 13.9066 48.0934 0 31 0C13.9066 0 0 13.9066 0 31ZM4.13333 31C4.13333 16.1861 16.1861 4.13333 31 4.13333C45.8139 4.13333 57.8667 16.1861 57.8667 31C57.8667 45.8139 45.8139 57.8667 31 57.8667C16.1861 57.8667 4.13333 45.8139 4.13333 31Z"/>
    </symbol>
</svg>
