<?xml version="1.0" standalone="no"?>
<!DOCTYPE svg PUBLIC "-//W3C//DTD SVG 20010904//EN"
 "http://www.w3.org/TR/2001/REC-SVG-20010904/DTD/svg10.dtd">
<svg version="1.0" xmlns="http://www.w3.org/2000/svg"
 width="700.000000pt" height="700.000000pt" viewBox="0 0 700.000000 700.000000"
 preserveAspectRatio="xMidYMid meet">
<metadata>
Created by potrace 1.14, written by Peter Selinger 2001-2017
</metadata>
<g transform="translate(0.000000,700.000000) scale(0.100000,-0.100000)"
fill="#000000" stroke="none">
<path d="M299 6977 c-144 -49 -239 -149 -283 -296 -14 -49 -16 -340 -16 -3166
0 -2068 3 -3130 10 -3166 31 -165 168 -304 333 -339 37 -7 973 -10 3192 -8
l3140 3 67 32 c128 60 223 180 247 310 16 81 15 6227 0 6308 -27 147 -133 266
-284 321 l-66 24 -3137 0 -3137 -1 -66 -22z m6327 -316 c12 -8 27 -23 35 -35
12 -18 14 -483 15 -3116 2 -3390 6 -3147 -55 -3173 -19 -8 -877 -11 -3116 -13
-3349 -1 -3137 -5 -3168 50 -9 16 -12 714 -13 3116 -1 3384 -6 3142 56 3172
43 21 6214 20 6246 -1z"/>
<path d="M807 5295 c-1 -5 -2 -818 -2 -1805 l1 -1795 612 -3 612 -2 0 1121 0
1121 74 -143 c40 -79 169 -333 286 -564 386 -762 622 -1228 701 -1380 l77
-150 322 0 321 0 123 240 c67 132 202 398 300 590 99 193 223 436 276 540 53
105 173 339 265 520 92 182 170 333 174 337 3 4 6 -497 5 -1112 l0 -1120 617
0 c485 0 618 3 621 13 2 6 3 820 3 1807 l-1 1795 -824 0 -824 0 -154 -305
c-85 -168 -314 -624 -510 -1015 l-356 -709 -120 244 c-231 471 -827 1675 -856
1730 l-29 55 -855 0 c-585 1 -856 -2 -859 -10z"/>
</g>
</svg>
